<svg fill="none" height="24" viewBox="0 0 24 24" width="24" xmlns="http://www.w3.org/2000/svg"><g stroke="#141b34" stroke-linecap="round" stroke-linejoin="round" stroke-width="1.5"><path d="m15 4-3 2-3-2c-.58575.50941-1.92929 1.29343-1.99652 2.14565-.02914.36947.12535.57151.43434.97557.67382.88117 1.44209 1.39887 1.44209 2.87878h6.24019c0-1.47991.7683-1.99761 1.4421-2.87878.309-.40406.4635-.6061.4343-.97557-.0672-.85222-1.4107-1.63624-1.9965-2.14565z"/><path d="m19.8632 17.8082c-.7043-2.6903-2.4974-5.158-3.6821-6.5714-.8497-1.0137-1.477-1.2368-2.8107-1.2368h-2.7408c-1.33369 0-1.96096.2231-2.81067 1.2368-1.1847 1.4134-2.97783 3.8811-3.68216 6.5714-.42994 1.6422.15387 2.5411 1.74969 3.1219 1.43478.5222 3.55062 1.0699 6.11354 1.0699 2.5629 0 4.6788-.5477 6.1135-1.0699 1.5959-.5808 2.1797-1.4797 1.7497-3.1219z"/><path d="m9 4v-2"/><path d="m15 4v-2"/><path d="m14 15s2 3 2 6.5m-6-6.5s-2 3-2 6.5"/></g></svg>