<svg fill="none" height="32" viewBox="0 0 32 32" width="32" xmlns="http://www.w3.org/2000/svg"><g fill="#212121"><path d="m16.01 4.6201c.2817 0 .51-.22834.51-.51 0-.28167-.2283-.51-.51-.51s-.51.22833-.51.51c0 .28166.2283.51.51.51z"/><path d="m15.3222 29.0669c.0775-.4652-.1789-.904-.5871-1.0816l1.3839-9.6969 1.7747 9.6512c-.4815.1345-.8013.6149-.7159 1.1273l.1696 1.0176c.0861.5163.5557.8789 1.0769.8315l9.1662-.8333c.5151-.0468.9095-.4787.9095-.9959v-.9961c0-.3994-.233-.7405-.5663-.9013.005-.1881-.0058-.3775-.0329-.5662l-3.0871-23.05925c-.0882-.70302-.4284-1.35049-.9576-1.82222-.5339-.47586-1.2234-.74002-1.9386-.742707h-11.96717l-.04964.002467c-.69974.0348-1.36365.32003-1.87057.80365-.50421.48103-.81968 1.12643-.88963 1.81952l-2.49206 23.52954c-.37646.1416-.64843.505-.64843.9365v.9961c0 .5172.39439.9491.90946.9959l9.16624.8333c.5212.0474.9908-.3152 1.0769-.8315zm10.6071-1.8434-6.0372.525-2.8833-15.6792.1343-.0617c.1125.0013.2241-.0197.3284-.0618s.1992-.1045.2792-.1836c.08-.079.1435-.1732.1868-.277s.0657-.2151.0656-.3276l.0086-5.14588h1.9883c-.0231 1.08852.3301 2.22998 1 3.08831.5154.52817 1.1414.93567 1.833 1.19327.1482.0552.56.1646.8971.2489l2.1899 16.3578c.0161.108.019.2166.0093.3235zm-10.9298-15.2235h-.0034l-2.2492 15.7606-6.09537-.53 1.78483-16.852c.05371-.0079.11061-.015.1686-.0223.18465-.0232.38031-.0478.51876-.1004.67683-.2573 1.28968-.65849 1.79628-1.17587.6884-.84867 1.0659-1.97553 1.07-3.06831h5.0117v4.73218c.0002.0656-.0244.1289-.0689.1771s-.1056.0778-.1711.0829h-1.0717s-.7.0037-.7.8437zm-6.45348-2.64938.35284-3.3389h2.10114c-.0015.85491-.2943 1.75212-.83 2.41831-.41372.40914-.91167.7231-1.45917.91999-.02941.01058-.0976.00555-.16481.0006.00026.00002-.00026-.00002 0 0zm.45961-4.34696.12441-1.17464c.02132-.2197.12092-.42442.28064-.57679.15971-.15237.36889-.24224.58932-.25321h11.91c.227.00085.4459.0847.6154.23574.1694.15104.2778.35885.3046.58426l.1586 1.18464zm14.11797 1.00806.4613 3.44582c-.153-.03827-.289-.07275-.312-.08094-.553-.19702-1.0559-.51336-1.4729-.92657-.5286-.67593-.8109-1.58029-.8-2.43831z"/></g></svg>