<svg height="24" viewBox="0 0 24 24" width="24" xmlns="http://www.w3.org/2000/svg"><g fill="none" fill-rule="evenodd"><path d="m0 0h24v24h-24z" fill-rule="nonzero"/><path d="m7.12129 5.29289-3.70711 3.70711 1.4776 1.4776.78857-1.05144c.59784-.79712 1.86649-.33874 1.81674.65644l-.39337 7.8675c-.02856.5711.42685 1.0499.99875 1.0499h7.79503c.5719 0 1.0273-.4788.9987-1.0499l-.3933-7.8675c-.0498-.99515 1.2189-1.45355 1.8167-.65644l.7886 1.05144 1.4776-1.4776-3.7071-3.70711c-.3774-.3774-.9275-.29289-1.4141-.29289-.6911 1.19463-1.9829 2-3.4646 2-1.4818 0-2.77357-.80537-3.46462-2-.48667 0-1.03669-.08451-1.41409.29289zm-1.41421-1.41421c.56261-.56261 1.32567-.87868 2.12132-.87868h1.27156c.47177 0 .87223.29681 1.02974.71088.2873.75519 1.0177 1.28912 1.8703 1.28912s1.5829-.53393 1.8702-1.28912c.1576-.41407.558-.71088 1.0298-.71088h1.2715c.7957 0 1.5588.31607 2.1214.87868l3.7071 3.70711c.781.78105.781 2.04738 0 2.82841l-1.4776 1.4776c-.5203.5203-1.2462.6891-1.9003.5261l.2716 5.4323c.0857 1.7135-1.2805 3.1498-2.9962 3.1498h-7.79503c-1.71569 0-3.08194-1.4363-2.99626-3.1498l.27162-5.4323c-.65412.163-1.38001-.0058-1.90027-.5261l-1.47759-1.4776c-.78105-.78103-.78105-2.04736 0-2.82841z" fill="#09244b"/></g></svg>