<svg viewBox="0 0 1024.004 1052.92" xmlns="http://www.w3.org/2000/svg"><path d="M304.018 21.333h80.1c89.754 1.283 162.02 74.342 162.02 164.28v.016-.002 79.644h-242.12zM383.39 89.6h-11.105v107.406H477.87v-11.378c-.218-52.406-42.203-94.934-94.378-96.027h-.102zm258.776-68.267h79.644v242.12H477.87v-80.1c1.283-89.755 74.342-162.02 164.28-162.02h.016zM653.544 89.6h-11.378c-52.406.22-94.934 42.204-96.027 94.38l-.003.1v11.106h107.406zM330.55 195.14h358.22c1.372-.024 2.992-.037 4.615-.037 103.853 0 194.89 54.866 245.71 137.194l.713 1.242.41.682c52.65 89.78 83.743 197.718 83.743 312.92 0 .66 0 1.32-.002 1.982v-.102 309.476H845.28c-6.025 20.266-16.563 37.63-30.495 51.613l.004-.003c-21.708 21.816-51.754 35.317-84.953 35.317H294.124c-33.2 0-63.245-13.502-84.947-35.313l-.005-.004c-13.928-13.978-24.466-31.343-30.272-50.752l-.22-.858H.003V649.02C0 648.45 0 647.777 0 647.102c0-115.19 31.093-223.115 85.344-315.845l-1.6 2.962.454-.684c51.528-83.535 142.533-138.38 246.35-138.4h.002zm358.947 68.312H334.51c-.962-.015-2.098-.024-3.235-.024-79.327 0-148.916 41.69-188.05 104.358l-.544.933C95.896 448.617 68.27 544.656 68.27 647.15c0 .594 0 1.19.003 1.783v-.093 241.21h174.035v34.439c0 14.497 5.86 27.627 15.34 37.15l-.003-.003c9.417 9.474 22.456 15.337 36.865 15.337H729.864c14.41 0 27.45-5.864 36.863-15.335l.003-.004c9.478-9.52 15.337-22.65 15.337-37.148v-.132.007-34.315h173.67v-241.21c.002-.518.003-1.13.003-1.744 0-102.504-27.627-198.556-75.842-281.115l1.43 2.647c-39.68-63.548-109.232-105.2-188.514-105.2-1.166 0-2.33.008-3.49.026l.174-.002zm-447.374 660.82h-68.267V490.098h68.267zm608.03 0h-68.268V490.098h68.267zM546.136 1011.2H477.87V229.32h68.267zM381.842 828.245H207.99v-68.267h173.852zm434.176 0H642.166v-68.267h173.852z"/></svg>